<svg width="6.625em" height="1.5em" viewBox="0 0 106 24" fill="none" xmlns="http://www.w3.org/2000/svg">
<title>Deepdub</title>
<path fill-rule="evenodd" clip-rule="evenodd" d="M23.2246 18.5999V4.19991H27.3931C31.0109 4.19991 33.9437 6.29991 33.9437 11.3999C33.9437 16.4999 31.0109 18.5999 27.3931 18.5999H23.2246ZM27.3931 5.39991H25.6066V17.3999H27.3931C30.8109 17.3999 31.5467 14.7687 31.5615 11.5022L31.5617 11.3999C31.5617 8.0862 30.8465 5.39991 27.3931 5.39991ZM95.5785 4.19991L95.5787 8.9629C96.3352 7.98757 97.3897 7.49991 98.5561 7.49991C100.858 7.49991 102.725 9.39991 102.725 13.1999C102.725 16.9999 100.858 18.8999 98.5561 18.8999C97.3897 18.8999 96.3352 18.4122 95.5787 17.4369L95.5785 18.5999H92.0055V17.9999L92.0649 17.9984C92.6951 17.9672 93.1965 17.4426 93.1965 16.7999V5.99991C93.1965 5.35725 92.6951 4.83258 92.0649 4.80137L92.0055 4.79991V4.19991H95.5785ZM97.9606 8.69991C96.0146 8.69991 95.5902 10.659 95.5788 13.0966V13.3032L95.5808 13.5109C95.6157 15.8511 96.0702 17.6999 97.9606 17.6999C99.9065 17.6999 100.331 15.7408 100.342 13.3032L100.343 13.1999C100.343 10.7146 99.9339 8.69991 97.9606 8.69991ZM62.528 7.49991C64.8302 7.49991 66.6965 9.39991 66.6965 13.1999C66.6965 16.9999 64.8302 18.8999 62.528 18.8999C61.3616 18.8999 60.3071 18.4122 59.5506 17.4369L59.5504 20.3999C59.5504 21.0426 60.0519 21.5672 60.682 21.5984L60.7415 21.5999V22.1999H55.9774V21.5999L56.0369 21.5984C56.667 21.5672 57.1684 21.0426 57.1684 20.3999V9.59991C57.1684 8.95725 56.667 8.43258 56.0369 8.40137L55.9774 8.39991V7.79991H59.5504L59.5506 8.9629C60.3071 7.98757 61.3616 7.49991 62.528 7.49991ZM61.9325 8.69991C59.9865 8.69991 59.5621 10.659 59.5507 13.0966V13.3032L59.5527 13.5109C59.5876 15.8511 60.0421 17.6999 61.9325 17.6999C63.8784 17.6999 64.3028 15.7408 64.3143 13.3032L64.3145 13.1999C64.3145 10.7146 63.9058 8.69991 61.9325 8.69991ZM80.6909 9.59991C80.6909 8.95725 80.1895 8.43258 79.5593 8.40137L79.4999 8.39991V7.79991H83.0729L83.0732 13.3032L83.0752 13.5139C83.1099 15.8183 83.5521 17.6454 85.3725 17.6987L85.4549 17.6999C87.4009 17.6999 87.8253 15.7408 87.8367 13.3032L87.837 9.59991C87.837 8.95725 87.3356 8.43258 86.7054 8.40137L86.646 8.39991V7.79991H90.219V16.7999C90.219 17.4426 90.7204 17.9672 91.3506 17.9984L91.41 17.9999V18.5999H87.837L87.8373 17.4363C87.0807 18.412 86.026 18.8999 84.8594 18.8999C82.5572 18.8999 80.6909 16.9999 80.6909 13.1999V9.59991ZM78.0111 4.19991V16.7999C78.0111 17.4426 78.5125 17.9672 79.1427 17.9984L79.2021 17.9999V18.5999H75.6291L75.6295 17.4363C74.8728 18.412 73.8182 18.8999 72.6516 18.8999C70.3494 18.8999 68.483 16.9999 68.483 13.1999C68.483 9.39991 70.3494 7.49991 72.6516 7.49991C73.8182 7.49991 74.8728 7.98777 75.6295 8.9635L75.6291 5.99991C75.6291 5.35725 75.1277 4.83258 74.4975 4.80137L74.4381 4.79991V4.19991H78.0111ZM73.2471 8.69991C71.3012 8.69991 70.8767 10.659 70.8653 13.0966V13.3032L70.8673 13.5109C70.9022 15.8511 71.3568 17.6999 73.2471 17.6999C75.193 17.6999 75.6174 15.7408 75.6289 13.3032L75.6291 13.1999C75.6291 10.7146 75.2204 8.69991 73.2471 8.69991ZM39.9882 17.3999C41.1752 17.3999 42.1567 16.8131 42.772 15.9001L44.2143 15.9001C43.4541 17.9 41.8075 18.8999 39.8988 18.8999C37.2677 18.8999 35.1347 16.9999 35.1347 13.1999C35.1347 9.39991 37.2677 7.49991 39.8988 7.49991C42.5299 7.49991 44.6628 9.39991 44.6628 13.1999C44.6628 13.4056 44.6566 13.6057 44.6443 13.8002L37.5197 13.8002L37.5247 13.9849C37.5908 15.9099 38.0969 17.3999 39.9882 17.3999ZM39.8988 8.69991C38.1544 8.69991 37.6326 10.3792 37.5351 12.6001H42.2625C42.1649 10.3792 41.6432 8.69991 39.8988 8.69991ZM50.7073 17.3999C51.8943 17.3999 52.8758 16.8131 53.4911 15.9001L54.9334 15.9001C54.1732 17.9 52.5266 18.8999 50.6179 18.8999C47.9868 18.8999 45.8538 16.9999 45.8538 13.1999C45.8538 9.39991 47.9868 7.49991 50.6179 7.49991C53.249 7.49991 55.3819 9.39991 55.3819 13.1999C55.3819 13.4056 55.3757 13.6057 55.3634 13.8002L48.2388 13.8002L48.2438 13.9849C48.3099 15.9099 48.816 17.3999 50.7073 17.3999ZM50.6179 8.69991C48.8735 8.69991 48.3517 10.3792 48.2542 12.6001H52.9816C52.884 10.3792 52.3623 8.69991 50.6179 8.69991Z" fill="white"/>
<path fill-rule="evenodd" clip-rule="evenodd" d="M4.46582 18.6C8.41248 18.6 11.6119 15.3764 11.6119 11.4C11.6119 7.4235 8.41248 4.19995 4.46582 4.19995C4.46582 7.26662 4.46582 9.56662 4.46582 11.1C4.46582 12.7666 4.46582 15.2666 4.46582 18.6Z" fill="#FF3390"/>
<path fill-rule="evenodd" clip-rule="evenodd" d="M11.6123 18.5999C15.559 18.5999 18.7584 15.3764 18.7584 11.3999C18.7584 7.42345 15.559 4.19991 11.6123 4.19991C11.6123 7.26657 11.6123 9.56657 11.6123 11.0999C11.6123 12.7666 11.6123 15.2666 11.6123 18.5999Z" fill="#FF3390"/>
</svg>
